# xmcd
#
# Track frame offsets:
#	150
#	18590
#	33202
#	45465
#	63550
#	82597
#	92747
#	103112
#	116187
#	127065
#	138817
#	150090
#
# Disc length: 2238 seconds
#
# Revision: 0
# Processed by: cddbd v1.4PL0 Copyright (c) Steve Scherf et al.
# Submitted via: audiograbber 1.81.02
#
DISCID=8e08bc0c
DTITLE=Billy Gilman - Classic Christmas
DYEAR=2000
DGENRE=Country
TTITLE0=White Christmas
TTITLE1=Warm and Fuzzy
TTITLE2=Winter Wonderland
TTITLE3=The Christmas Song
TTITLE4=There's a New Kid In Town
TTITLE5=Jingle Bell Rock
TTITLE6=Rockin' Around the Christmas Tree
TTITLE7=Angels We Have Heard on High
TTITLE8=Silent Night
TTITLE9=Away In a Manger
TTITLE10=Sleigh Ride
TTITLE11=O Holy Night
EXTD=
EXTT0=
EXTT1=
EXTT2=
EXTT3=
EXTT4=
EXTT5=
EXTT6=
EXTT7=
EXTT8=
EXTT9=
EXTT10=
EXTT11=
PLAYORDER=
